# Blender v2.82 (sub 7) OBJ File: 'AlienStarfighter.blend'
# www.blender.org
mtllib AlienStarfighter.mtl
o Cylinder
v -1.548112 -0.000000 -0.281713
v 1.548112 0.000000 -0.263625
v -1.548112 -0.140857 -0.243971
v 1.548112 -0.131812 -0.228306
v -1.548112 -0.243971 -0.140857
v 1.548112 -0.228306 -0.131812
v -1.548112 -0.281713 0.000000
v 1.548112 -0.263625 0.000000
v -1.548112 -0.243971 0.140857
v 1.548112 -0.228306 0.131812
v -1.548112 -0.140857 0.243971
v 1.548112 -0.131812 0.228306
v -1.548112 -0.000000 0.281713
v 1.548112 0.000000 0.263625
v -1.548112 0.140856 0.243971
v 1.548112 0.131812 0.228306
v -1.548112 0.243971 0.140857
v 1.548112 0.228306 0.131812
v -1.548112 0.281713 0.000000
v 1.548112 0.263625 0.000000
v -1.548112 0.243971 -0.140857
v 1.548112 0.228306 -0.131812
v -1.548112 0.140857 -0.243971
v 1.548112 0.131813 -0.228306
v -1.479496 -0.000000 -0.334752
v -1.479496 -0.167376 -0.289904
v -1.479496 -0.289904 -0.167376
v -1.479496 -0.334752 0.000000
v -1.479496 -0.289904 0.167376
v -1.479496 -0.167376 0.289904
v -1.479496 -0.000000 0.334752
v -1.479496 0.167376 0.289904
v -1.479496 0.289904 0.167376
v -1.479496 0.334752 0.000000
v -1.479496 0.289904 -0.167376
v -1.479496 0.167376 -0.289904
v 1.490003 0.000000 -0.334752
v 1.490003 -0.167376 -0.289904
v 1.490003 -0.289904 -0.167376
v 1.490003 -0.334752 0.000000
v 1.490003 -0.289904 0.167376
v 1.490003 -0.167376 0.289904
v 1.490003 0.000000 0.334752
v 1.490003 0.167376 0.289904
v 1.490003 0.289904 0.167376
v 1.490003 0.334752 0.000000
v 1.490003 0.289904 -0.167376
v 1.490003 0.167376 -0.289904
v -1.548112 -0.000000 -0.334752
v -1.548112 -0.167376 -0.289904
v -1.548112 -0.289904 -0.167376
v -1.548112 -0.334752 0.000000
v -1.548112 -0.289904 0.167376
v -1.548112 -0.167376 0.289904
v -1.548112 -0.000000 0.334752
v -1.548112 0.167376 0.289904
v -1.548112 0.289904 0.167376
v -1.548112 0.334752 0.000000
v -1.548112 0.289904 -0.167376
v -1.548112 0.167376 -0.289904
v 1.548112 -0.167376 -0.289904
v 1.548112 0.000000 -0.334752
v 1.548112 -0.289904 -0.167376
v 1.548112 -0.334752 0.000000
v 1.548112 -0.289904 0.167376
v 1.548112 -0.167376 0.289904
v 1.548112 0.000000 0.334752
v 1.548112 0.167376 0.289904
v 1.548112 0.289904 0.167376
v 1.548112 0.334752 0.000000
v 1.548112 0.289904 -0.167376
v 1.548112 0.167376 -0.289904
vt 1.000000 0.990616
vt 1.000000 1.000000
vt 0.916667 1.000000
vt 0.916667 0.990616
vt 0.833333 1.000000
vt 0.833333 0.990616
vt 0.750000 1.000000
vt 0.750000 0.990616
vt 0.666667 1.000000
vt 0.666667 0.990616
vt 0.583333 1.000000
vt 0.583333 0.990616
vt 0.500000 1.000000
vt 0.500000 0.990616
vt 0.416667 1.000000
vt 0.416667 0.990616
vt 0.333333 1.000000
vt 0.333333 0.990616
vt 0.250000 1.000000
vt 0.250000 0.990616
vt 0.166667 1.000000
vt 0.166667 0.990616
vt 0.344503 0.413683
vt 0.250000 0.439005
vt 0.155497 0.413683
vt 0.086316 0.344503
vt 0.060995 0.250000
vt 0.086317 0.155497
vt 0.155497 0.086317
vt 0.250000 0.060995
vt 0.344503 0.086317
vt 0.413683 0.155497
vt 0.439005 0.250000
vt 0.413683 0.344503
vt 0.083333 1.000000
vt 0.083333 0.990616
vt 0.000000 1.000000
vt 0.000000 0.990616
vt 0.750000 0.451974
vt 0.850987 0.424914
vt 0.924915 0.350987
vt 0.951974 0.250000
vt 0.924915 0.149013
vt 0.850987 0.075085
vt 0.750000 0.048026
vt 0.649013 0.075085
vt 0.575085 0.149013
vt 0.548026 0.250000
vt 0.575085 0.350987
vt 0.649013 0.424915
vt 0.083333 0.500000
vt 0.083333 0.511081
vt 0.000000 0.511081
vt 0.000000 0.500000
vt 0.166667 0.500000
vt 0.166667 0.511081
vt 0.250000 0.500000
vt 0.250000 0.511081
vt 0.333333 0.500000
vt 0.333333 0.511081
vt 0.416667 0.500000
vt 0.416667 0.511081
vt 0.500000 0.500000
vt 0.500000 0.511081
vt 0.583333 0.500000
vt 0.583333 0.511081
vt 0.666667 0.500000
vt 0.666667 0.511081
vt 0.750000 0.500000
vt 0.750000 0.511081
vt 0.833333 0.500000
vt 0.833333 0.511081
vt 0.916667 0.500000
vt 0.916667 0.511081
vt 1.000000 0.500000
vt 1.000000 0.511081
vt 0.750000 0.490000
vt 0.870000 0.457846
vt 0.957846 0.370000
vt 0.990000 0.250000
vt 0.957846 0.130000
vt 0.870000 0.042154
vt 0.750000 0.010000
vt 0.630000 0.042154
vt 0.542154 0.130000
vt 0.510000 0.250000
vt 0.542154 0.370000
vt 0.630000 0.457846
vt 0.370000 0.457846
vt 0.250000 0.490000
vt 0.457846 0.370000
vt 0.490000 0.250000
vt 0.457846 0.130000
vt 0.370000 0.042154
vt 0.250000 0.010000
vt 0.130000 0.042154
vt 0.042154 0.130000
vt 0.010000 0.250000
vt 0.042154 0.370000
vt 0.130000 0.457846
vn 0.0000 0.0000 -1.0000
vn 0.6532 0.0000 -0.7571
vn 0.6532 -0.3786 -0.6557
vn 0.0000 -0.5000 -0.8660
vn 0.6532 -0.6557 -0.3786
vn 0.0000 -0.8660 -0.5000
vn 0.6532 -0.7571 0.0000
vn 0.0000 -1.0000 0.0000
vn 0.6532 -0.6557 0.3786
vn 0.0000 -0.8660 0.5000
vn 0.6532 -0.3786 0.6557
vn 0.0000 -0.5000 0.8660
vn 0.6532 0.0000 0.7571
vn 0.0000 0.0000 1.0000
vn 0.6532 0.3786 0.6557
vn 0.0000 0.5000 0.8660
vn 0.6532 0.6557 0.3786
vn 0.0000 0.8660 0.5000
vn 0.6532 0.7571 0.0000
vn 0.0000 1.0000 0.0000
vn 0.6532 0.6557 -0.3786
vn 0.0000 0.8660 -0.5000
vn 1.0000 0.0000 0.0000
vn 0.6532 0.3786 -0.6557
vn 0.0000 0.5000 -0.8660
vn -1.0000 0.0000 0.0000
vn -0.6532 0.3786 -0.6557
vn -0.6532 0.0000 -0.7571
vn -0.6532 0.6557 -0.3786
vn -0.6532 0.7571 0.0000
vn -0.6532 0.6557 0.3786
vn -0.6532 0.3786 0.6557
vn -0.6532 0.0000 0.7571
vn -0.6532 -0.3786 0.6557
vn -0.6532 -0.6557 0.3786
vn -0.6532 -0.7571 0.0000
vn -0.6532 -0.6557 -0.3786
vn -0.6532 -0.3786 -0.6557
usemtl None
s 1
f 37/1/1 62/2/2 61/3/3 38/4/4
f 38/4/4 61/3/3 63/5/5 39/6/6
f 39/6/6 63/5/5 64/7/7 40/8/8
f 40/8/8 64/7/7 65/9/9 41/10/10
f 41/10/10 65/9/9 66/11/11 42/12/12
f 42/12/12 66/11/11 67/13/13 43/14/14
f 43/14/14 67/13/13 68/15/15 44/16/16
f 44/16/16 68/15/15 69/17/17 45/18/18
f 45/18/18 69/17/17 70/19/19 46/20/20
f 46/20/20 70/19/19 71/21/21 47/22/22
f 4/23/23 2/24/23 24/25/23 22/26/23 20/27/23 18/28/23 16/29/23 14/30/23 12/31/23 10/32/23 8/33/23 6/34/23
f 47/22/22 71/21/21 72/35/24 48/36/25
f 48/36/25 72/35/24 62/37/2 37/38/1
f 1/39/26 3/40/26 5/41/26 7/42/26 9/43/26 11/44/26 13/45/26 15/46/26 17/47/26 19/48/26 21/49/26 23/50/26
f 60/51/27 36/52/25 25/53/1 49/54/28
f 59/55/29 35/56/22 36/52/25 60/51/27
f 58/57/30 34/58/20 35/56/22 59/55/29
f 57/59/31 33/60/18 34/58/20 58/57/30
f 56/61/32 32/62/16 33/60/18 57/59/31
f 55/63/33 31/64/14 32/62/16 56/61/32
f 54/65/34 30/66/12 31/64/14 55/63/33
f 53/67/35 29/68/10 30/66/12 54/65/34
f 52/69/36 28/70/8 29/68/10 53/67/35
f 51/71/37 27/72/6 28/70/8 52/69/36
f 50/73/38 26/74/4 27/72/6 51/71/37
f 49/75/28 25/76/1 26/74/4 50/73/38
f 36/52/25 48/36/25 37/38/1 25/53/1
f 35/56/22 47/22/22 48/36/25 36/52/25
f 34/58/20 46/20/20 47/22/22 35/56/22
f 33/60/18 45/18/18 46/20/20 34/58/20
f 32/62/16 44/16/16 45/18/18 33/60/18
f 31/64/14 43/14/14 44/16/16 32/62/16
f 30/66/12 42/12/12 43/14/14 31/64/14
f 29/68/10 41/10/10 42/12/12 30/66/12
f 28/70/8 40/8/8 41/10/10 29/68/10
f 27/72/6 39/6/6 40/8/8 28/70/8
f 26/74/4 38/4/4 39/6/6 27/72/6
f 25/76/1 37/1/1 38/4/4 26/74/4
f 3/40/26 1/39/26 49/77/28 50/78/38
f 5/41/26 3/40/26 50/78/38 51/79/37
f 7/42/26 5/41/26 51/79/37 52/80/36
f 9/43/26 7/42/26 52/80/36 53/81/35
f 11/44/26 9/43/26 53/81/35 54/82/34
f 13/45/26 11/44/26 54/82/34 55/83/33
f 15/46/26 13/45/26 55/83/33 56/84/32
f 17/47/26 15/46/26 56/84/32 57/85/31
f 19/48/26 17/47/26 57/85/31 58/86/30
f 21/49/26 19/48/26 58/86/30 59/87/29
f 23/50/26 21/49/26 59/87/29 60/88/27
f 1/39/26 23/50/26 60/88/27 49/77/28
f 2/24/23 4/23/23 61/89/3 62/90/2
f 4/23/23 6/34/23 63/91/5 61/89/3
f 6/34/23 8/33/23 64/92/7 63/91/5
f 8/33/23 10/32/23 65/93/9 64/92/7
f 10/32/23 12/31/23 66/94/11 65/93/9
f 12/31/23 14/30/23 67/95/13 66/94/11
f 14/30/23 16/29/23 68/96/15 67/95/13
f 16/29/23 18/28/23 69/97/17 68/96/15
f 18/28/23 20/27/23 70/98/19 69/97/17
f 20/27/23 22/26/23 71/99/21 70/98/19
f 22/26/23 24/25/23 72/100/24 71/99/21
f 24/25/23 2/24/23 62/90/2 72/100/24
o Sphere_Sphere.002
v 0.000000 0.418577 -2.042007
v 0.000000 0.149388 -2.540769
v 0.000000 -0.149389 -2.540769
v -0.000000 0.671346 -0.022563
v 0.186401 0.604862 -1.014900
v 0.335882 0.418577 -1.810692
v 0.418838 0.149388 -2.252324
v 0.418838 -0.149389 -2.252324
v 0.335882 -0.418577 -1.810692
v 0.186401 -0.604862 -1.014900
v 0.330099 0.604862 -0.659197
v 0.594818 0.418577 -1.169738
v 0.741726 0.149388 -1.453067
v 0.741726 -0.149389 -1.453067
v 0.594818 -0.418577 -1.169738
v 0.330099 -0.604862 -0.659197
v 0.398176 0.604862 -0.157649
v 0.717488 0.418577 -0.265980
v 0.894693 0.149388 -0.326099
v 0.894693 -0.149389 -0.326099
v 0.717488 -0.418577 -0.265980
v 0.398176 -0.604862 -0.157649
v 0.375035 0.604862 0.199207
v 0.675790 0.418577 0.386859
v 0.842697 0.149388 0.490999
v 0.842697 -0.149389 0.490999
v 0.675790 -0.418577 0.386859
v 0.375035 -0.604862 0.199207
v 0.265979 0.604862 0.459140
v 0.479277 0.418577 0.855243
v 0.597649 0.149388 1.075063
v 0.597649 -0.149389 1.075063
v 0.479277 -0.418577 0.855243
v 0.265979 -0.604862 0.459140
v 0.095990 0.604862 0.605919
v 0.172967 0.418577 1.119730
v 0.172967 -0.418577 1.119730
v 0.095990 -0.604862 0.605919
v -0.095990 0.604862 0.605919
v -0.172967 0.418577 1.119730
v -0.172967 -0.418577 1.119730
v -0.095990 -0.604862 0.605919
v -0.265979 0.604862 0.459140
v -0.479277 0.418577 0.855243
v -0.597649 0.149388 1.075063
v -0.597649 -0.149389 1.075063
v -0.479277 -0.418577 0.855243
v -0.265979 -0.604862 0.459140
v -0.375035 0.604862 0.199207
v -0.675790 0.418577 0.386859
v -0.842697 0.149388 0.490998
v -0.842697 -0.149389 0.490998
v -0.675790 -0.418577 0.386859
v -0.375035 -0.604862 0.199207
v -0.398176 0.604862 -0.157649
v -0.717488 0.418577 -0.265980
v -0.894693 0.149388 -0.326100
v -0.894693 -0.149389 -0.326100
v -0.717488 -0.418577 -0.265980
v -0.398176 -0.604862 -0.157649
v -0.330099 0.604862 -0.659197
v -0.594818 0.418577 -1.169738
v -0.741726 0.149388 -1.453067
v -0.741726 -0.149389 -1.453067
v -0.594818 -0.418577 -1.169738
v -0.330099 -0.604862 -0.659197
v -0.186401 0.604862 -1.014900
v -0.335882 0.418577 -1.810692
v -0.418838 0.149388 -2.252324
v -0.418838 -0.149389 -2.252324
v -0.335882 -0.418577 -1.810692
v -0.186401 -0.604862 -1.014900
v 0.000000 -0.671346 -0.022563
v -0.000000 0.604862 -1.143270
v -0.000000 -0.418577 -2.042007
v -0.000000 -0.604862 -1.143270
v 0.215687 0.149388 1.404873
v 0.215687 -0.149389 1.404873
v -0.215687 0.149388 1.404873
v -0.215687 -0.149389 1.404873
vt 0.653846 0.000000
vt 0.692308 0.142857
vt 0.615385 0.142857
vt 0.692308 0.285714
vt 0.692308 0.428571
vt 0.615385 0.428571
vt 0.615385 0.285714
vt 0.692308 0.571429
vt 0.692308 0.714286
vt 0.615385 0.714286
vt 0.615385 0.571429
vt 0.692308 0.857143
vt 0.653846 1.000000
vt 0.615385 0.857143
vt 0.576923 0.000000
vt 0.538462 0.142857
vt 0.538462 0.428571
vt 0.538462 0.285714
vt 0.538462 0.714286
vt 0.538462 0.571429
vt 0.576923 1.000000
vt 0.538462 0.857143
vt 0.500000 0.000000
vt 0.461539 0.142857
vt 0.461539 0.428571
vt 0.461539 0.285714
vt 0.461539 0.714286
vt 0.461539 0.571429
vt 0.500000 1.000000
vt 0.461539 0.857143
vt 0.384615 0.714286
vt 0.384615 0.571429
vt 0.423077 1.000000
vt 0.384615 0.857143
vt 0.384615 0.285714
vt 0.384616 0.142857
vt 0.384615 0.428571
vt 0.423077 0.000000
vt 0.307692 0.285714
vt 0.307692 0.142857
vt 0.307692 0.571429
vt 0.307692 0.428571
vt 0.307692 0.857143
vt 0.307692 0.714286
vt 0.346154 0.000000
vt 0.346154 1.000000
vt 0.230769 0.285714
vt 0.230769 0.142857
vt 0.230769 0.571429
vt 0.230769 0.428571
vt 0.230769 0.857143
vt 0.230769 0.714286
vt 0.269231 0.000000
vt 0.269231 1.000000
vt 0.153846 0.857143
vt 0.153846 0.714286
vt 0.192308 0.000000
vt 0.153846 0.142857
vt 0.153846 0.428571
vt 0.153846 0.285714
vt 0.153846 0.571429
vt 0.192308 1.000000
vt 0.115385 0.000000
vt 0.076923 0.142857
vt 0.076923 0.428571
vt 0.076923 0.285714
vt 0.076923 0.714286
vt 0.076923 0.571429
vt 0.115385 1.000000
vt 0.076923 0.857143
vt 0.000000 0.428571
vt 0.000000 0.285714
vt 0.000000 0.714286
vt 0.000000 0.571429
vt 0.038462 1.000000
vt 0.000000 0.857143
vt 0.000000 0.142857
vt 0.038462 0.000000
vt 1.000000 0.857143
vt 0.961538 1.000000
vt 0.923077 0.857143
vt 1.000000 0.142857
vt 1.000000 0.285714
vt 0.923077 0.285714
vt 0.923077 0.142857
vt 1.000000 0.428571
vt 1.000000 0.571429
vt 0.923077 0.571429
vt 0.923077 0.428571
vt 1.000000 0.714286
vt 0.923077 0.714286
vt 0.961538 0.000000
vt 0.846154 0.285714
vt 0.846154 0.142857
vt 0.846154 0.571429
vt 0.846154 0.428571
vt 0.846154 0.857143
vt 0.846154 0.714286
vt 0.884615 0.000000
vt 0.884615 1.000000
vt 0.769231 0.571429
vt 0.769231 0.428571
vt 0.769231 0.857143
vt 0.769231 0.714286
vt 0.807692 0.000000
vt 0.769231 0.142857
vt 0.769231 0.285714
vt 0.807692 1.000000
vt 0.730769 0.000000
vt 0.730769 1.000000
vn 0.0000 -0.9998 0.0156
vn 0.0000 -0.9873 -0.1585
vn 0.1987 -0.9725 -0.1213
vn 0.0000 -0.9211 -0.3893
vn 0.0000 -0.4445 -0.8958
vn 0.6897 -0.4215 -0.5888
vn 0.4243 -0.8589 -0.2868
vn 0.0000 0.4445 -0.8958
vn 0.0000 0.9211 -0.3893
vn 0.4243 0.8589 -0.2868
vn 0.6897 0.4215 -0.5888
vn 0.0000 0.9873 -0.1585
vn 0.0000 0.9998 0.0156
vn 0.1987 0.9725 -0.1213
vn 0.3052 -0.9499 -0.0669
vn 0.9067 -0.3328 -0.2589
vn 0.6185 -0.7708 -0.1528
vn 0.6185 0.7708 -0.1528
vn 0.9067 0.3328 -0.2589
vn 0.3052 0.9499 -0.0669
vn 0.3473 -0.9377 -0.0089
vn 0.9577 -0.2852 -0.0384
vn 0.6910 -0.7225 -0.0233
vn 0.6910 0.7225 -0.0233
vn 0.9577 0.2852 -0.0384
vn 0.3473 0.9377 -0.0089
vn 0.6671 0.7291 0.1525
vn 0.9297 0.2907 0.2261
vn 0.3374 0.9386 0.0714
vn 0.6671 -0.7291 0.1525
vn 0.3374 -0.9386 0.0714
vn 0.9297 -0.2907 0.2261
vn 0.5165 -0.7774 0.3591
vn 0.2551 -0.9525 0.1661
vn 0.7551 0.3299 0.5665
vn 0.7551 -0.3299 0.5665
vn 0.2551 0.9525 0.1661
vn 0.5165 0.7774 0.3591
vn 0.2084 -0.8275 0.5212
vn 0.1000 -0.9669 0.2347
vn 0.3156 0.3661 0.8754
vn 0.3156 -0.3661 0.8754
vn 0.1000 0.9669 0.2347
vn 0.2084 0.8275 0.5212
vn -0.1000 0.9669 0.2347
vn -0.2084 0.8275 0.5212
vn -0.1000 -0.9669 0.2347
vn -0.3156 -0.3661 0.8754
vn -0.2084 -0.8275 0.5212
vn -0.3156 0.3661 0.8754
vn -0.2551 -0.9525 0.1661
vn -0.7551 -0.3299 0.5665
vn -0.5165 -0.7774 0.3591
vn -0.5165 0.7774 0.3591
vn -0.7551 0.3299 0.5665
vn -0.2551 0.9525 0.1661
vn -0.9297 -0.2907 0.2261
vn -0.6671 -0.7291 0.1525
vn -0.6671 0.7291 0.1525
vn -0.9297 0.2907 0.2261
vn -0.3374 0.9386 0.0714
vn -0.3374 -0.9386 0.0714
vn -0.3473 0.9377 -0.0089
vn -0.6910 -0.7225 -0.0233
vn -0.3473 -0.9377 -0.0089
vn -0.9577 0.2852 -0.0384
vn -0.9577 -0.2852 -0.0384
vn -0.6910 0.7225 -0.0233
vn -0.6185 -0.7708 -0.1528
vn -0.3052 -0.9499 -0.0669
vn -0.9067 0.3328 -0.2589
vn -0.9067 -0.3328 -0.2589
vn -0.3052 0.9499 -0.0669
vn -0.6185 0.7708 -0.1528
vn -0.6897 0.4215 -0.5888
vn -0.6897 -0.4214 -0.5888
vn -0.1987 0.9725 -0.1213
vn -0.4243 0.8589 -0.2868
vn -0.1987 -0.9725 -0.1213
vn -0.4243 -0.8589 -0.2868
usemtl None
s 1
f 145/101/39 148/102/40 82/103/41
f 147/104/42 75/105/43 80/106/44 81/107/45
f 74/108/46 73/109/47 78/110/48 79/111/49
f 146/112/50 76/113/51 77/114/52
f 148/102/40 147/104/42 81/107/45 82/103/41
f 75/105/43 74/108/46 79/111/49 80/106/44
f 73/109/47 146/112/50 77/114/52 78/110/48
f 145/115/39 82/103/41 88/116/53
f 81/107/45 80/106/44 86/117/54 87/118/55
f 79/111/49 78/110/48 84/119/56 85/120/57
f 77/114/52 76/121/51 83/122/58
f 82/103/41 81/107/45 87/118/55 88/116/53
f 80/106/44 79/111/49 85/120/57 86/117/54
f 78/110/48 77/114/52 83/122/58 84/119/56
f 145/123/39 88/116/53 94/124/59
f 87/118/55 86/117/54 92/125/60 93/126/61
f 85/120/57 84/119/56 90/127/62 91/128/63
f 83/122/58 76/129/51 89/130/64
f 88/116/53 87/118/55 93/126/61 94/124/59
f 86/117/54 85/120/57 91/128/63 92/125/60
f 84/119/56 83/122/58 89/130/64 90/127/62
f 91/128/63 90/127/62 96/131/65 97/132/66
f 89/130/64 76/133/51 95/134/67
f 94/124/59 93/126/61 99/135/68 100/136/69
f 92/125/60 91/128/63 97/132/66 98/137/70
f 90/127/62 89/130/64 95/134/67 96/131/65
f 145/138/39 94/124/59 100/136/69
f 93/126/61 92/125/60 98/137/70 99/135/68
f 100/136/69 99/135/68 105/139/71 106/140/72
f 98/137/70 97/132/66 103/141/73 104/142/74
f 96/131/65 95/134/67 101/143/75 102/144/76
f 145/145/39 100/136/69 106/140/72
f 99/135/68 98/137/70 104/142/74 105/139/71
f 97/132/66 96/131/65 102/144/76 103/141/73
f 95/134/67 76/146/51 101/143/75
f 106/140/72 105/139/71 109/147/77 110/148/78
f 104/142/74 103/141/73 149/149/79 150/150/80
f 102/144/76 101/143/75 107/151/81 108/152/82
f 145/153/39 106/140/72 110/148/78
f 105/139/71 104/142/74 150/150/80 109/147/77
f 103/141/73 102/144/76 108/152/82 149/149/79
f 101/143/75 76/154/51 107/151/81
f 108/152/82 107/151/81 111/155/83 112/156/84
f 145/157/39 110/148/78 114/158/85
f 109/147/77 150/150/80 152/159/86 113/160/87
f 149/149/79 108/152/82 112/156/84 151/161/88
f 107/151/81 76/162/51 111/155/83
f 110/148/78 109/147/77 113/160/87 114/158/85
f 145/163/39 114/158/85 120/164/89
f 113/160/87 152/159/86 118/165/90 119/166/91
f 151/161/88 112/156/84 116/167/92 117/168/93
f 111/155/83 76/169/51 115/170/94
f 114/158/85 113/160/87 119/166/91 120/164/89
f 152/159/86 151/161/88 117/168/93 118/165/90
f 112/156/84 111/155/83 115/170/94 116/167/92
f 119/166/91 118/165/90 124/171/95 125/172/96
f 117/168/93 116/167/92 122/173/97 123/174/98
f 115/170/94 76/175/51 121/176/99
f 120/164/89 119/166/91 125/172/96 126/177/100
f 118/165/90 117/168/93 123/174/98 124/171/95
f 116/167/92 115/170/94 121/176/99 122/173/97
f 145/178/39 120/164/89 126/177/100
f 121/179/99 76/180/51 127/181/101
f 126/182/100 125/183/96 131/184/102 132/185/103
f 124/186/95 123/187/98 129/188/104 130/189/105
f 122/190/97 121/179/99 127/181/101 128/191/106
f 145/192/39 126/182/100 132/185/103
f 125/183/96 124/186/95 130/189/105 131/184/102
f 123/187/98 122/190/97 128/191/106 129/188/104
f 132/185/103 131/184/102 137/193/107 138/194/108
f 130/189/105 129/188/104 135/195/109 136/196/110
f 128/191/106 127/181/101 133/197/111 134/198/112
f 145/199/39 132/185/103 138/194/108
f 131/184/102 130/189/105 136/196/110 137/193/107
f 129/188/104 128/191/106 134/198/112 135/195/109
f 127/181/101 76/200/51 133/197/111
f 136/196/110 135/195/109 141/201/113 142/202/114
f 134/198/112 133/197/111 139/203/115 140/204/116
f 145/205/39 138/194/108 144/206/117
f 137/193/107 136/196/110 142/202/114 143/207/118
f 135/195/109 134/198/112 140/204/116 141/201/113
f 133/197/111 76/208/51 139/203/115
f 138/194/108 137/193/107 143/207/118 144/206/117
f 145/209/39 144/206/117 148/102/40
f 143/207/118 142/202/114 75/105/43 147/104/42
f 141/201/113 140/204/116 73/109/47 74/108/46
f 139/203/115 76/210/51 146/112/50
f 144/206/117 143/207/118 147/104/42 148/102/40
f 142/202/114 141/201/113 74/108/46 75/105/43
f 140/204/116 139/203/115 146/112/50 73/109/47
f 150/150/80 149/149/79 151/161/88 152/159/86
o Cylinder.002
v 1.753606 -0.395501 -4.098542
v 1.753606 0.000000 -1.342663
v 1.753606 -0.685027 -2.976191
v 1.753607 -0.791001 -1.443032
v 1.753606 -0.685027 0.090128
v 1.753606 -0.395501 1.212478
v 1.753606 -0.000000 1.500314
v 1.753606 0.240540 2.070261
v 1.753606 0.685027 0.090129
v 1.753606 0.791001 -1.443030
v 1.753606 0.685027 -2.976190
v 1.753606 0.395501 -4.098541
v 1.512306 -0.000000 -1.342663
v 1.512306 -0.395501 -4.098542
v 1.512306 -0.685027 -2.976191
v 1.512306 -0.791001 -1.443032
v 1.512306 -0.685027 0.090128
v 1.512306 -0.395501 1.212478
v 1.512306 -0.000000 1.500314
v 1.512306 0.240540 2.070261
v 1.512306 0.685027 0.090129
v 1.512305 0.791001 -1.443030
v 1.512306 0.685027 -2.976190
v 1.512306 0.395501 -4.098541
v 1.512306 0.197751 -4.303946
v 1.753606 0.197751 -4.303946
v 1.512306 -0.197750 -4.303946
v 1.753606 -0.197750 -4.303946
v 1.512306 0.208723 -1.408291
v 1.753606 0.208723 -1.408291
v 1.753606 -0.204156 -1.414889
v 1.512306 -0.204156 -1.414889
vt 0.958333 1.000000
vt 0.916667 1.000000
vt 0.916667 0.500000
vt 0.958333 0.500000
vt 0.833333 1.000000
vt 0.833333 0.500000
vt 0.750000 1.000000
vt 0.750000 0.500000
vt 0.666667 1.000000
vt 0.666667 0.500000
vt 0.583333 1.000000
vt 0.583333 0.500000
vt 0.500000 1.000000
vt 0.500000 0.500000
vt 0.416667 1.000000
vt 0.416667 0.500000
vt 0.333333 1.000000
vt 0.333333 0.500000
vt 0.250000 1.000000
vt 0.250000 0.500000
vt 0.166667 1.000000
vt 0.166667 0.500000
vt 0.083333 1.000000
vt 0.083333 0.500000
vt 0.039431 0.500000
vt 0.039431 1.000000
vt 0.000000 1.000000
vt 0.000000 0.500000
vt 0.370000 0.457846
vt 0.310000 0.473923
vt 0.304853 0.475302
vt 0.250000 0.490000
vt 0.193220 0.474786
vt 0.190000 0.473923
vt 0.130000 0.457846
vt 0.042154 0.370000
vt 0.010000 0.250000
vt 0.042154 0.130000
vt 0.130000 0.042154
vt 0.250000 0.010000
vt 0.370000 0.042154
vt 0.457846 0.130000
vt 0.490000 0.250000
vt 0.457846 0.370000
vt 0.750000 0.490000
vt 0.804853 0.475302
vt 0.810000 0.473923
vt 0.870000 0.457846
vt 0.957846 0.370000
vt 0.990000 0.250000
vt 0.957846 0.130000
vt 0.870000 0.042154
vt 0.750000 0.010000
vt 0.630000 0.042154
vt 0.542154 0.130000
vt 0.510000 0.250000
vt 0.542154 0.370000
vt 0.630000 0.457846
vt 0.690000 0.473923
vt 0.693220 0.474786
vt 0.041667 1.000000
vt 0.041667 0.500000
vt 0.961908 1.000000
vt 0.961908 0.500000
vt 1.000000 1.000000
vt 1.000000 0.500000
vn 0.0000 -0.7204 -0.6936
vn 0.0000 -0.9683 -0.2498
vn 0.0000 -0.9976 -0.0690
vn 0.0000 -0.9976 0.0690
vn 0.0000 -0.9683 0.2498
vn 0.0000 -0.5884 0.8085
vn 0.0000 -0.9213 0.3888
vn -0.0000 0.9757 0.2190
vn 0.0000 0.9976 0.0690
vn 0.0000 0.9976 -0.0690
vn 0.0000 0.9683 -0.2498
vn 0.0000 -0.2999 -0.9540
vn 1.0000 0.0000 0.0000
vn -1.0000 -0.0000 -0.0000
vn -0.0000 0.7204 -0.6936
vn -0.0000 1.0000 0.0022
vn 0.0000 -1.0000 0.0038
vn 0.0000 0.3335 -0.9427
usemtl None
s off
f 180/211/119 153/212/119 166/213/119 179/214/119
f 166/213/120 153/212/120 155/215/120 167/216/120
f 167/216/121 155/215/121 156/217/121 168/218/121
f 168/218/122 156/217/122 157/219/122 169/220/122
f 169/220/123 157/219/123 158/221/123 170/222/123
f 170/222/124 158/221/124 159/223/124 171/224/124
f 171/224/125 159/223/125 160/225/125 172/226/125
f 172/226/126 160/225/126 161/227/126 173/228/126
f 173/228/127 161/227/127 162/229/127 174/230/127
f 174/230/128 162/229/128 163/231/128 175/232/128
f 175/232/129 163/231/129 164/233/129 176/234/129
f 181/235/130 182/236/130 154/237/130 165/238/130
f 153/239/131 180/240/131 183/241/131 154/242/131 182/243/131 178/244/131 164/245/131 163/246/131 162/247/131 161/248/131 160/249/131 159/250/131 158/251/131 157/252/131 156/253/131 155/254/131
f 165/255/132 184/256/132 179/257/132 166/258/132 167/259/132 168/260/132 169/261/132 170/262/132 171/263/132 172/264/132 173/265/132 174/266/132 175/267/132 176/268/132 177/269/132 181/270/132
f 176/234/133 164/233/133 178/271/133 177/272/133
f 183/273/134 180/211/134 179/214/134 184/274/134
f 177/272/135 178/271/135 182/236/135 181/235/135
f 154/275/136 183/273/136 184/274/136 165/276/136
o Cylinder.003_Cylinder.005
v -1.479440 -0.395501 -4.098542
v -1.479440 0.000000 -1.342663
v -1.479440 -0.685027 -2.976191
v -1.479440 -0.791001 -1.443032
v -1.479440 -0.685027 0.090128
v -1.479440 -0.395501 1.212478
v -1.479440 -0.000000 1.500314
v -1.479440 0.240540 2.070261
v -1.479440 0.685027 0.090129
v -1.479440 0.791001 -1.443030
v -1.479440 0.685027 -2.976190
v -1.479440 0.395501 -4.098541
v -1.720741 -0.000000 -1.342663
v -1.720741 -0.395501 -4.098542
v -1.720741 -0.685027 -2.976191
v -1.720741 -0.791001 -1.443032
v -1.720741 -0.685027 0.090128
v -1.720741 -0.395501 1.212478
v -1.720741 -0.000000 1.500314
v -1.720741 0.240540 2.070261
v -1.720741 0.685027 0.090129
v -1.720741 0.791001 -1.443030
v -1.720741 0.685027 -2.976190
v -1.720741 0.395501 -4.098541
v -1.720741 0.197751 -4.303946
v -1.479440 0.197751 -4.303946
v -1.720741 -0.197750 -4.303946
v -1.479440 -0.197750 -4.303946
v -1.720741 0.208723 -1.408291
v -1.479440 0.208723 -1.408291
v -1.479440 -0.204156 -1.414889
v -1.720741 -0.204156 -1.414889
vt 0.958333 1.000000
vt 0.916667 1.000000
vt 0.916667 0.500000
vt 0.958333 0.500000
vt 0.833333 1.000000
vt 0.833333 0.500000
vt 0.750000 1.000000
vt 0.750000 0.500000
vt 0.666667 1.000000
vt 0.666667 0.500000
vt 0.583333 1.000000
vt 0.583333 0.500000
vt 0.500000 1.000000
vt 0.500000 0.500000
vt 0.416667 1.000000
vt 0.416667 0.500000
vt 0.333333 1.000000
vt 0.333333 0.500000
vt 0.250000 1.000000
vt 0.250000 0.500000
vt 0.166667 1.000000
vt 0.166667 0.500000
vt 0.083333 1.000000
vt 0.083333 0.500000
vt 0.039431 0.500000
vt 0.039431 1.000000
vt 0.000000 1.000000
vt 0.000000 0.500000
vt 0.370000 0.457846
vt 0.310000 0.473923
vt 0.304853 0.475302
vt 0.250000 0.490000
vt 0.193220 0.474786
vt 0.190000 0.473923
vt 0.130000 0.457846
vt 0.042154 0.370000
vt 0.010000 0.250000
vt 0.042154 0.130000
vt 0.130000 0.042154
vt 0.250000 0.010000
vt 0.370000 0.042154
vt 0.457846 0.130000
vt 0.490000 0.250000
vt 0.457846 0.370000
vt 0.750000 0.490000
vt 0.804853 0.475302
vt 0.810000 0.473923
vt 0.870000 0.457846
vt 0.957846 0.370000
vt 0.990000 0.250000
vt 0.957846 0.130000
vt 0.870000 0.042154
vt 0.750000 0.010000
vt 0.630000 0.042154
vt 0.542154 0.130000
vt 0.510000 0.250000
vt 0.542154 0.370000
vt 0.630000 0.457846
vt 0.690000 0.473923
vt 0.693220 0.474786
vt 0.041667 1.000000
vt 0.041667 0.500000
vt 0.961908 1.000000
vt 0.961908 0.500000
vt 1.000000 1.000000
vt 1.000000 0.500000
vn 0.0000 -0.7204 -0.6936
vn 0.0000 -0.9683 -0.2498
vn 0.0000 -0.9976 -0.0690
vn 0.0000 -0.9976 0.0690
vn 0.0000 -0.9683 0.2498
vn 0.0000 -0.5884 0.8085
vn 0.0000 -0.9213 0.3888
vn -0.0000 0.9757 0.2190
vn 0.0000 0.9976 0.0690
vn 0.0000 0.9976 -0.0690
vn 0.0000 0.9683 -0.2498
vn 0.0000 -0.2999 -0.9540
vn 1.0000 0.0000 0.0000
vn -1.0000 0.0000 0.0000
vn -0.0000 0.7204 -0.6936
vn -0.0000 1.0000 0.0022
vn 0.0000 -1.0000 0.0038
vn 0.0000 0.3335 -0.9427
usemtl None
s off
f 212/277/137 185/278/137 198/279/137 211/280/137
f 198/279/138 185/278/138 187/281/138 199/282/138
f 199/282/139 187/281/139 188/283/139 200/284/139
f 200/284/140 188/283/140 189/285/140 201/286/140
f 201/286/141 189/285/141 190/287/141 202/288/141
f 202/288/142 190/287/142 191/289/142 203/290/142
f 203/290/143 191/289/143 192/291/143 204/292/143
f 204/292/144 192/291/144 193/293/144 205/294/144
f 205/294/145 193/293/145 194/295/145 206/296/145
f 206/296/146 194/295/146 195/297/146 207/298/146
f 207/298/147 195/297/147 196/299/147 208/300/147
f 213/301/148 214/302/148 186/303/148 197/304/148
f 185/305/149 212/306/149 215/307/149 186/308/149 214/309/149 210/310/149 196/311/149 195/312/149 194/313/149 193/314/149 192/315/149 191/316/149 190/317/149 189/318/149 188/319/149 187/320/149
f 197/321/150 216/322/150 211/323/150 198/324/150 199/325/150 200/326/150 201/327/150 202/328/150 203/329/150 204/330/150 205/331/150 206/332/150 207/333/150 208/334/150 209/335/150 213/336/150
f 208/300/151 196/299/151 210/337/151 209/338/151
f 215/339/152 212/277/152 211/280/152 216/340/152
f 209/338/153 210/337/153 214/302/153 213/301/153
f 186/341/154 215/339/154 216/340/154 197/342/154
o Cube.002_Cube.003
v -2.799045 -0.088638 2.133951
v -2.799045 0.088638 2.133951
v -2.680180 -0.088638 1.427888
v -2.680180 0.088638 1.427888
v -2.409028 -0.088638 0.676786
v -2.409028 0.088638 0.676786
v -2.159667 -0.088638 1.392785
v -2.159667 0.088638 1.392785
v -1.986187 -0.088638 0.034571
v -1.860256 0.088638 1.392785
v -1.986187 0.088638 0.034571
v -1.860256 -0.088638 1.392785
v -1.736192 -0.088638 -1.274131
v -1.683236 0.088638 1.392785
v -1.736192 0.088638 -1.274131
v -1.683236 -0.088638 1.392785
v 2.799046 -0.088638 2.133951
v 2.799046 0.088638 2.133951
v 2.680181 -0.088638 1.427888
v 2.680181 0.088638 1.427888
v 2.409029 -0.088638 0.676786
v 2.409029 0.088638 0.676786
v 2.159667 -0.088638 1.392785
v 2.159667 0.088638 1.392785
v 1.986187 -0.088638 0.034571
v 1.860256 0.088638 1.392785
v 1.986187 0.088638 0.034571
v 1.860256 -0.088638 1.392785
v 1.736193 -0.088638 -1.274131
v 1.683236 0.088638 1.392785
v 1.736193 0.088638 -1.274131
v 1.683236 -0.088638 1.392785
vt 0.375000 0.412298
vt 0.375000 0.500000
vt 0.625000 0.500000
vt 0.625000 0.412298
vt 0.375000 0.750000
vt 0.625000 0.750000
vt 0.287298 0.500000
vt 0.287298 0.750000
vt 0.159467 0.500000
vt 0.625000 0.284467
vt 0.840533 0.750000
vt 0.375000 0.965533
vt 0.712702 0.750000
vt 0.712702 0.500000
vt 0.206963 0.500000
vt 0.206963 0.750000
vt 0.375000 0.837702
vt 0.625000 0.837702
vt 0.375000 0.331963
vt 0.625000 0.331963
vt 0.375000 0.284467
vt 0.159467 0.750000
vt 0.793037 0.750000
vt 0.793037 0.500000
vt 0.375000 0.918037
vt 0.625000 0.918037
vt 0.840533 0.500000
vt 0.625000 0.965533
vt 0.375000 0.412298
vt 0.625000 0.412298
vt 0.625000 0.500000
vt 0.375000 0.500000
vt 0.625000 0.750000
vt 0.375000 0.750000
vt 0.287298 0.500000
vt 0.287298 0.750000
vt 0.159467 0.500000
vt 0.375000 0.965533
vt 0.840533 0.750000
vt 0.625000 0.284467
vt 0.712702 0.500000
vt 0.712702 0.750000
vt 0.206963 0.500000
vt 0.206963 0.750000
vt 0.625000 0.837702
vt 0.375000 0.837702
vt 0.375000 0.331963
vt 0.625000 0.331963
vt 0.375000 0.284467
vt 0.159467 0.750000
vt 0.793037 0.500000
vt 0.793037 0.750000
vt 0.625000 0.918037
vt 0.375000 0.918037
vt 0.840533 0.500000
vt 0.625000 0.965533
vn -0.9406 0.0000 -0.3396
vn -0.9861 0.0000 -0.1660
vn 0.0000 -1.0000 -0.0000
vn 0.9998 0.0000 -0.0199
vn 0.0000 1.0000 0.0000
vn 0.7572 0.0000 0.6532
vn -0.8352 0.0000 -0.5499
vn -0.9822 0.0000 -0.1876
vn 0.0000 0.0000 1.0000
vn 0.9406 0.0000 -0.3396
vn 0.9861 0.0000 -0.1660
vn -0.9998 0.0000 -0.0199
vn -0.7572 0.0000 0.6532
vn 0.8352 0.0000 -0.5499
vn 0.9822 0.0000 -0.1876
usemtl None
s off
f 221/343/155 219/344/155 220/345/155 222/346/155
f 219/344/156 217/347/156 218/348/156 220/345/156
f 221/349/157 223/350/157 217/347/157 219/344/157
f 229/351/158 231/352/158 230/353/158 232/354/158
f 220/345/159 218/348/159 224/355/159 222/356/159
f 225/357/157 228/358/157 223/350/157 221/349/157
f 217/347/160 223/359/160 224/360/160 218/348/160
f 225/361/161 221/343/161 222/346/161 227/362/161
f 229/363/162 225/361/162 227/362/162 231/352/162
f 229/351/157 232/364/157 228/358/157 225/357/157
f 222/356/159 224/355/159 226/365/159 227/366/159
f 223/359/163 228/367/163 226/368/163 224/360/163
f 227/366/159 226/365/159 230/353/159 231/369/159
f 228/367/163 232/354/163 230/370/163 226/368/163
f 237/371/164 238/372/164 236/373/164 235/374/164
f 235/374/165 236/373/165 234/375/165 233/376/165
f 237/377/157 235/374/157 233/376/157 239/378/157
f 245/379/166 248/380/166 246/381/166 247/382/166
f 236/373/159 238/383/159 240/384/159 234/375/159
f 241/385/157 237/377/157 239/378/157 244/386/157
f 233/376/167 234/375/167 240/387/167 239/388/167
f 241/389/168 243/390/168 238/372/168 237/371/168
f 245/391/169 247/382/169 243/390/169 241/389/169
f 245/379/157 241/385/157 244/386/157 248/392/157
f 238/383/159 243/393/159 242/394/159 240/384/159
f 239/388/163 240/387/163 242/395/163 244/396/163
f 243/393/159 247/397/159 246/381/159 242/394/159
f 244/396/163 242/395/163 246/398/163 248/380/163
o Cube.003_Cube.004
v -1.042213 0.007080 3.577206
v -1.042213 0.184356 3.577206
v -0.923348 0.007080 2.871143
v -0.923348 0.184356 2.871143
v -0.652196 0.007080 2.120041
v -0.652196 0.184356 2.120041
v -0.402835 0.007080 2.836040
v -0.402835 0.184356 2.836040
v -0.229355 0.007080 1.477826
v -0.103423 0.184356 3.089236
v -0.229355 0.184356 1.477826
v -0.103423 0.007080 3.089236
v 0.020640 0.007080 0.169124
v 0.073597 0.184356 3.089236
v 0.020640 0.184356 0.169124
v 0.073597 0.007080 3.089236
v 1.021553 0.007080 3.577206
v 1.021553 0.184356 3.577206
v 0.902688 0.007080 2.871143
v 0.902688 0.184356 2.871143
v 0.631536 0.007080 2.120041
v 0.631536 0.184356 2.120041
v 0.382175 0.007080 2.836040
v 0.382175 0.184356 2.836040
v 0.208695 0.007080 1.477826
v 0.082763 0.184356 3.089236
v 0.208695 0.184356 1.477826
v 0.082763 0.007080 3.089236
v -0.041300 0.007080 0.169124
v -0.094257 0.184356 3.089236
v -0.041300 0.184356 0.169124
v -0.094257 0.007080 3.089236
vt 0.375000 0.412298
vt 0.375000 0.500000
vt 0.625000 0.500000
vt 0.625000 0.412298
vt 0.375000 0.750000
vt 0.625000 0.750000
vt 0.287298 0.500000
vt 0.287298 0.750000
vt 0.159467 0.500000
vt 0.625000 0.284467
vt 0.840533 0.750000
vt 0.375000 0.965533
vt 0.712702 0.750000
vt 0.712702 0.500000
vt 0.206963 0.500000
vt 0.206963 0.750000
vt 0.375000 0.837702
vt 0.625000 0.837702
vt 0.375000 0.331963
vt 0.625000 0.331963
vt 0.375000 0.284467
vt 0.159467 0.750000
vt 0.793037 0.750000
vt 0.793037 0.500000
vt 0.375000 0.918037
vt 0.625000 0.918037
vt 0.840533 0.500000
vt 0.625000 0.965533
vt 0.375000 0.412298
vt 0.625000 0.412298
vt 0.625000 0.500000
vt 0.375000 0.500000
vt 0.625000 0.750000
vt 0.375000 0.750000
vt 0.287298 0.500000
vt 0.287298 0.750000
vt 0.159467 0.500000
vt 0.375000 0.965533
vt 0.840533 0.750000
vt 0.625000 0.284467
vt 0.712702 0.500000
vt 0.712702 0.750000
vt 0.206963 0.500000
vt 0.206963 0.750000
vt 0.625000 0.837702
vt 0.375000 0.837702
vt 0.375000 0.331963
vt 0.625000 0.331963
vt 0.375000 0.284467
vt 0.159467 0.750000
vt 0.793037 0.500000
vt 0.793037 0.750000
vt 0.625000 0.918037
vt 0.375000 0.918037
vt 0.840533 0.500000
vt 0.625000 0.965533
vn -0.9406 0.0000 -0.3396
vn -0.9861 0.0000 -0.1660
vn 0.0000 -1.0000 0.0000
vn 0.9998 0.0000 -0.0181
vn 0.0000 1.0000 0.0000
vn 0.7572 0.0000 0.6532
vn -0.8352 0.0000 -0.5499
vn -0.9822 0.0000 -0.1876
vn -0.6457 0.0000 0.7636
vn 0.0000 0.0000 1.0000
vn 0.9406 0.0000 -0.3396
vn 0.9861 0.0000 -0.1660
vn -0.9998 0.0000 -0.0181
vn -0.7572 0.0000 0.6532
vn 0.8352 0.0000 -0.5499
vn 0.9822 0.0000 -0.1876
vn 0.6457 -0.0000 0.7636
usemtl None
s off
f 253/399/170 251/400/170 252/401/170 254/402/170
f 251/400/171 249/403/171 250/404/171 252/401/171
f 253/405/172 255/406/172 249/403/172 251/400/172
f 261/407/173 263/408/173 262/409/173 264/410/173
f 252/401/174 250/404/174 256/411/174 254/412/174
f 257/413/172 260/414/172 255/406/172 253/405/172
f 249/403/175 255/415/175 256/416/175 250/404/175
f 257/417/176 253/399/176 254/402/176 259/418/176
f 261/419/177 257/417/177 259/418/177 263/408/177
f 261/407/172 264/420/172 260/414/172 257/413/172
f 254/412/174 256/411/174 258/421/174 259/422/174
f 255/415/178 260/423/178 258/424/178 256/416/178
f 259/422/174 258/421/174 262/409/174 263/425/174
f 260/423/179 264/410/179 262/426/179 258/424/179
f 269/427/180 270/428/180 268/429/180 267/430/180
f 267/430/181 268/429/181 266/431/181 265/432/181
f 269/433/172 267/430/172 265/432/172 271/434/172
f 277/435/182 280/436/182 278/437/182 279/438/182
f 268/429/174 270/439/174 272/440/174 266/431/174
f 273/441/172 269/433/172 271/434/172 276/442/172
f 265/432/183 266/431/183 272/443/183 271/444/183
f 273/445/184 275/446/184 270/428/184 269/427/184
f 277/447/185 279/438/185 275/446/185 273/445/185
f 277/435/172 273/441/172 276/442/172 280/448/172
f 270/439/174 275/449/174 274/450/174 272/440/174
f 271/444/186 272/443/186 274/451/186 276/452/186
f 275/449/174 279/453/174 278/437/174 274/450/174
f 276/452/179 274/451/179 278/454/179 280/436/179
o Cube.004_Cube.006
v -0.143454 1.202541 4.600044
v 0.033822 1.202544 4.600044
v -0.143452 1.083676 3.893981
v 0.033824 1.083679 3.893981
v -0.143449 0.812524 3.142880
v 0.033828 0.812526 3.142880
v -0.143445 0.563163 3.858878
v 0.033831 0.563165 3.858878
v -0.143443 0.389683 2.500664
v 0.033835 0.263754 3.858878
v 0.033834 0.389686 2.500664
v -0.143441 0.263752 3.858878
v -0.143439 0.139688 1.191962
v 0.033838 0.086734 2.960267
v 0.033837 0.139691 1.191962
v -0.143439 0.086732 2.960267
vt 0.375000 0.412298
vt 0.375000 0.500000
vt 0.625000 0.500000
vt 0.625000 0.412298
vt 0.375000 0.750000
vt 0.625000 0.750000
vt 0.287298 0.500000
vt 0.287298 0.750000
vt 0.159467 0.500000
vt 0.625000 0.284467
vt 0.840533 0.750000
vt 0.375000 0.965533
vt 0.712702 0.750000
vt 0.712702 0.500000
vt 0.206963 0.500000
vt 0.206963 0.750000
vt 0.375000 0.837702
vt 0.625000 0.837702
vt 0.375000 0.331963
vt 0.625000 0.331963
vt 0.375000 0.284467
vt 0.159467 0.750000
vt 0.793037 0.750000
vt 0.793037 0.500000
vt 0.375000 0.918037
vt 0.625000 0.918037
vt 0.840533 0.500000
vt 0.625000 0.965533
vn -0.0000 0.9406 -0.3396
vn -0.0000 0.9861 -0.1660
vn -1.0000 -0.0000 -0.0000
vn 0.0000 -0.9996 -0.0299
vn 1.0000 0.0000 0.0000
vn 0.0000 -0.7572 0.6532
vn -0.0000 0.8352 -0.5499
vn -0.0000 0.9822 -0.1876
vn 0.0000 0.0000 1.0000
vn 0.0000 -0.9811 0.1933
usemtl None
s off
f 285/455/187 283/456/187 284/457/187 286/458/187
f 283/456/188 281/459/188 282/460/188 284/457/188
f 285/461/189 287/462/189 281/459/189 283/456/189
f 293/463/190 295/464/190 294/465/190 296/466/190
f 284/457/191 282/460/191 288/467/191 286/468/191
f 289/469/189 292/470/189 287/462/189 285/461/189
f 281/459/192 287/471/192 288/472/192 282/460/192
f 289/473/193 285/455/193 286/458/193 291/474/193
f 293/475/194 289/473/194 291/474/194 295/464/194
f 293/463/189 296/476/189 292/470/189 289/469/189
f 286/468/191 288/467/191 290/477/191 291/478/191
f 287/471/195 292/479/195 290/480/195 288/472/195
f 291/478/191 290/477/191 294/465/191 295/481/191
f 292/479/196 296/466/196 294/482/196 290/480/196
o Sphere.001_Sphere.003
v 0.000000 0.469553 -2.240406
v 0.000000 0.263736 -2.507781
v 0.000000 0.070423 -2.486436
v -0.000000 0.761234 -1.098015
v 0.087947 0.655253 -1.663499
v 0.158474 0.484230 -2.107483
v 0.197614 0.282039 -2.342030
v 0.197614 0.088725 -2.320684
v 0.158474 -0.057423 -2.047675
v 0.087947 -0.127459 -1.577074
v 0.155746 0.677823 -1.459099
v 0.280644 0.524899 -1.739167
v 0.349957 0.332752 -1.882747
v 0.349957 0.139438 -1.861401
v 0.280644 -0.016754 -1.679358
v 0.155746 -0.104889 -1.372673
v 0.187865 0.709646 -1.170891
v 0.338522 0.582243 -1.219833
v 0.422129 0.404259 -1.235148
v 0.422129 0.210945 -1.213803
v 0.338522 0.040590 -1.160025
v 0.187865 -0.073066 -1.084465
v 0.176947 0.732289 -0.965828
v 0.318848 0.623666 -0.844687
v 0.397597 0.456104 -0.765613
v 0.397597 0.262790 -0.744267
v 0.318848 0.082013 -0.784878
v 0.176947 -0.050423 -0.879402
v 0.125493 0.748782 -0.816461
v 0.226130 0.653386 -0.575536
v 0.281980 0.493164 -0.429987
v 0.281980 0.299850 -0.408642
v 0.226130 0.111732 -0.515728
v 0.125493 -0.033930 -0.730035
v 0.045289 0.758095 -0.732116
v 0.081609 0.670168 -0.423552
v 0.081609 0.128514 -0.363743
v 0.045289 -0.024617 -0.645690
v -0.045289 0.758095 -0.732116
v -0.081609 0.670168 -0.423552
v -0.081609 0.128514 -0.363743
v -0.045289 -0.024617 -0.645690
v -0.125493 0.748782 -0.816461
v -0.226130 0.653386 -0.575536
v -0.281980 0.493164 -0.429987
v -0.281980 0.299850 -0.408642
v -0.226130 0.111732 -0.515728
v -0.125493 -0.033930 -0.730034
v -0.176947 0.732289 -0.965828
v -0.318848 0.623666 -0.844687
v -0.397597 0.456104 -0.765613
v -0.397597 0.262790 -0.744268
v -0.318848 0.082013 -0.784878
v -0.176947 -0.050423 -0.879402
v -0.187865 0.709646 -1.170891
v -0.338522 0.582243 -1.219833
v -0.422129 0.404259 -1.235149
v -0.422129 0.210945 -1.213803
v -0.338522 0.040590 -1.160025
v -0.187865 -0.073066 -1.084465
v -0.155746 0.677823 -1.459099
v -0.280644 0.524899 -1.739167
v -0.349957 0.332752 -1.882747
v -0.349957 0.139438 -1.861401
v -0.280644 -0.016754 -1.679358
v -0.155746 -0.104889 -1.372673
v -0.087947 0.655253 -1.663499
v -0.158474 0.484230 -2.107483
v -0.197614 0.282039 -2.342030
v -0.197614 0.088725 -2.320684
v -0.158474 -0.057423 -2.047675
v -0.087947 -0.127459 -1.577073
v 0.000000 -0.107511 -1.002090
v -0.000000 0.647108 -1.737266
v -0.000000 -0.072100 -2.180597
v -0.000000 -0.135604 -1.650840
v 0.101764 0.514090 -0.240466
v 0.101764 0.320776 -0.219121
v -0.101764 0.514090 -0.240466
v -0.101764 0.320776 -0.219121
vt 0.653846 0.000000
vt 0.692308 0.142857
vt 0.615385 0.142857
vt 0.692308 0.285714
vt 0.692308 0.428571
vt 0.615385 0.428571
vt 0.615385 0.285714
vt 0.692308 0.571429
vt 0.692308 0.714286
vt 0.615385 0.714286
vt 0.615385 0.571429
vt 0.692308 0.857143
vt 0.653846 1.000000
vt 0.615385 0.857143
vt 0.576923 0.000000
vt 0.538462 0.142857
vt 0.538462 0.428571
vt 0.538462 0.285714
vt 0.538462 0.714286
vt 0.538462 0.571429
vt 0.576923 1.000000
vt 0.538462 0.857143
vt 0.500000 0.000000
vt 0.461539 0.142857
vt 0.461539 0.428571
vt 0.461539 0.285714
vt 0.461539 0.714286
vt 0.461539 0.571429
vt 0.500000 1.000000
vt 0.461539 0.857143
vt 0.384615 0.714286
vt 0.384615 0.571429
vt 0.423077 1.000000
vt 0.384615 0.857143
vt 0.384615 0.285714
vt 0.384616 0.142857
vt 0.384615 0.428571
vt 0.423077 0.000000
vt 0.307692 0.285714
vt 0.307692 0.142857
vt 0.307692 0.571429
vt 0.307692 0.428571
vt 0.307692 0.857143
vt 0.307692 0.714286
vt 0.346154 0.000000
vt 0.346154 1.000000
vt 0.230769 0.285714
vt 0.230769 0.142857
vt 0.230769 0.571429
vt 0.230769 0.428571
vt 0.230769 0.857143
vt 0.230769 0.714286
vt 0.269231 0.000000
vt 0.269231 1.000000
vt 0.153846 0.857143
vt 0.153846 0.714286
vt 0.192308 0.000000
vt 0.153846 0.142857
vt 0.153846 0.428571
vt 0.153846 0.285714
vt 0.153846 0.571429
vt 0.192308 1.000000
vt 0.115385 0.000000
vt 0.076923 0.142857
vt 0.076923 0.428571
vt 0.076923 0.285714
vt 0.076923 0.714286
vt 0.076923 0.571429
vt 0.115385 1.000000
vt 0.076923 0.857143
vt 0.000000 0.428571
vt 0.000000 0.285714
vt 0.000000 0.714286
vt 0.000000 0.571429
vt 0.038462 1.000000
vt 0.000000 0.857143
vt 0.000000 0.142857
vt 0.038462 0.000000
vt 1.000000 0.857143
vt 0.961538 1.000000
vt 0.923077 0.857143
vt 1.000000 0.142857
vt 1.000000 0.285714
vt 0.923077 0.285714
vt 0.923077 0.142857
vt 1.000000 0.428571
vt 1.000000 0.571429
vt 0.923077 0.571429
vt 0.923077 0.428571
vt 1.000000 0.714286
vt 0.923077 0.714286
vt 0.961538 0.000000
vt 0.846154 0.285714
vt 0.846154 0.142857
vt 0.846154 0.571429
vt 0.846154 0.428571
vt 0.846154 0.857143
vt 0.846154 0.714286
vt 0.884615 0.000000
vt 0.884615 1.000000
vt 0.769231 0.571429
vt 0.769231 0.428571
vt 0.769231 0.857143
vt 0.769231 0.714286
vt 0.807692 0.000000
vt 0.769231 0.142857
vt 0.769231 0.285714
vt 0.807692 1.000000
vt 0.730769 0.000000
vt 0.730769 1.000000
vn 0.0000 -0.9920 0.1262
vn 0.0000 -0.9973 -0.0733
vn 0.2656 -0.9637 -0.0260
vn 0.0000 -0.9430 -0.3327
vn 0.0000 -0.5169 -0.8560
vn 0.7468 -0.4387 -0.4996
vn 0.5147 -0.8327 -0.2041
vn 0.0000 0.3177 -0.9481
vn 0.0000 0.8477 -0.5304
vn 0.5147 0.7681 -0.3809
vn 0.7468 0.3192 -0.5834
vn 0.0000 0.9573 -0.2892
vn 0.0000 0.9956 -0.0933
vn 0.2656 0.9348 -0.2357
vn 0.3937 -0.9187 0.0305
vn 0.9374 -0.2912 -0.1907
vn 0.7154 -0.6948 -0.0732
vn 0.7154 0.6621 -0.2231
vn 0.9374 0.2426 -0.2497
vn 0.3937 0.9033 -0.1706
vn 0.4430 -0.8921 0.0891
vn 0.9747 -0.2233 -0.0078
vn 0.7848 -0.6181 0.0450
vn 0.7848 0.6130 -0.0909
vn 0.9747 0.2163 -0.0563
vn 0.4430 0.8900 -0.1076
vn 0.7611 0.6441 0.0757
vn 0.9540 0.2492 0.1664
vn 0.4308 0.9021 -0.0251
vn 0.7611 -0.6121 0.2144
vn 0.4308 -0.8858 0.1723
vn 0.9540 -0.2069 0.2168
vn 0.6129 -0.6616 0.4319
vn 0.3352 -0.9004 0.2774
vn 0.8119 0.3344 0.4786
vn 0.8119 -0.2219 0.5400
vn 0.3352 0.9392 0.0742
vn 0.6129 0.7399 0.2771
vn 0.2634 -0.7225 0.6392
vn 0.1383 -0.9201 0.3663
vn 0.3595 0.4291 0.8286
vn 0.3595 -0.2379 0.9023
vn 0.1383 0.9779 0.1567
vn 0.2634 0.8445 0.4662
vn -0.1383 0.9779 0.1567
vn -0.2634 0.8445 0.4662
vn -0.1383 -0.9201 0.3663
vn -0.3595 -0.2379 0.9023
vn -0.2634 -0.7225 0.6392
vn -0.3595 0.4291 0.8286
vn -0.3352 -0.9004 0.2774
vn -0.8119 -0.2219 0.5400
vn -0.6129 -0.6616 0.4319
vn -0.6129 0.7399 0.2771
vn -0.8119 0.3344 0.4786
vn -0.3352 0.9392 0.0742
vn -0.9540 -0.2069 0.2168
vn -0.7611 -0.6121 0.2144
vn -0.7611 0.6441 0.0757
vn -0.9540 0.2492 0.1664
vn -0.4308 0.9021 -0.0251
vn -0.4308 -0.8858 0.1723
vn -0.4430 0.8900 -0.1076
vn -0.7848 -0.6181 0.0450
vn -0.4430 -0.8921 0.0891
vn -0.9747 0.2163 -0.0563
vn -0.9747 -0.2233 -0.0078
vn -0.7848 0.6130 -0.0909
vn -0.7154 -0.6948 -0.0732
vn -0.3937 -0.9187 0.0305
vn -0.9374 0.2426 -0.2497
vn -0.9374 -0.2912 -0.1907
vn -0.3937 0.9033 -0.1706
vn -0.7154 0.6621 -0.2231
vn -0.7468 0.3192 -0.5834
vn -0.7468 -0.4387 -0.4996
vn -0.2656 0.9348 -0.2357
vn -0.5147 0.7681 -0.3809
vn -0.2656 -0.9637 -0.0260
vn -0.5147 -0.8327 -0.2041
usemtl None
s 1
f 369/483/197 372/484/198 306/485/199
f 371/486/200 299/487/201 304/488/202 305/489/203
f 298/490/204 297/491/205 302/492/206 303/493/207
f 370/494/208 300/495/209 301/496/210
f 372/484/198 371/486/200 305/489/203 306/485/199
f 299/487/201 298/490/204 303/493/207 304/488/202
f 297/491/205 370/494/208 301/496/210 302/492/206
f 369/497/197 306/485/199 312/498/211
f 305/489/203 304/488/202 310/499/212 311/500/213
f 303/493/207 302/492/206 308/501/214 309/502/215
f 301/496/210 300/503/209 307/504/216
f 306/485/199 305/489/203 311/500/213 312/498/211
f 304/488/202 303/493/207 309/502/215 310/499/212
f 302/492/206 301/496/210 307/504/216 308/501/214
f 369/505/197 312/498/211 318/506/217
f 311/500/213 310/499/212 316/507/218 317/508/219
f 309/502/215 308/501/214 314/509/220 315/510/221
f 307/504/216 300/511/209 313/512/222
f 312/498/211 311/500/213 317/508/219 318/506/217
f 310/499/212 309/502/215 315/510/221 316/507/218
f 308/501/214 307/504/216 313/512/222 314/509/220
f 315/510/221 314/509/220 320/513/223 321/514/224
f 313/512/222 300/515/209 319/516/225
f 318/506/217 317/508/219 323/517/226 324/518/227
f 316/507/218 315/510/221 321/514/224 322/519/228
f 314/509/220 313/512/222 319/516/225 320/513/223
f 369/520/197 318/506/217 324/518/227
f 317/508/219 316/507/218 322/519/228 323/517/226
f 324/518/227 323/517/226 329/521/229 330/522/230
f 322/519/228 321/514/224 327/523/231 328/524/232
f 320/513/223 319/516/225 325/525/233 326/526/234
f 369/527/197 324/518/227 330/522/230
f 323/517/226 322/519/228 328/524/232 329/521/229
f 321/514/224 320/513/223 326/526/234 327/523/231
f 319/516/225 300/528/209 325/525/233
f 330/522/230 329/521/229 333/529/235 334/530/236
f 328/524/232 327/523/231 373/531/237 374/532/238
f 326/526/234 325/525/233 331/533/239 332/534/240
f 369/535/197 330/522/230 334/530/236
f 329/521/229 328/524/232 374/532/238 333/529/235
f 327/523/231 326/526/234 332/534/240 373/531/237
f 325/525/233 300/536/209 331/533/239
f 332/534/240 331/533/239 335/537/241 336/538/242
f 369/539/197 334/530/236 338/540/243
f 333/529/235 374/532/238 376/541/244 337/542/245
f 373/531/237 332/534/240 336/538/242 375/543/246
f 331/533/239 300/544/209 335/537/241
f 334/530/236 333/529/235 337/542/245 338/540/243
f 369/545/197 338/540/243 344/546/247
f 337/542/245 376/541/244 342/547/248 343/548/249
f 375/543/246 336/538/242 340/549/250 341/550/251
f 335/537/241 300/551/209 339/552/252
f 338/540/243 337/542/245 343/548/249 344/546/247
f 376/541/244 375/543/246 341/550/251 342/547/248
f 336/538/242 335/537/241 339/552/252 340/549/250
f 343/548/249 342/547/248 348/553/253 349/554/254
f 341/550/251 340/549/250 346/555/255 347/556/256
f 339/552/252 300/557/209 345/558/257
f 344/546/247 343/548/249 349/554/254 350/559/258
f 342/547/248 341/550/251 347/556/256 348/553/253
f 340/549/250 339/552/252 345/558/257 346/555/255
f 369/560/197 344/546/247 350/559/258
f 345/561/257 300/562/209 351/563/259
f 350/564/258 349/565/254 355/566/260 356/567/261
f 348/568/253 347/569/256 353/570/262 354/571/263
f 346/572/255 345/561/257 351/563/259 352/573/264
f 369/574/197 350/564/258 356/567/261
f 349/565/254 348/568/253 354/571/263 355/566/260
f 347/569/256 346/572/255 352/573/264 353/570/262
f 356/567/261 355/566/260 361/575/265 362/576/266
f 354/571/263 353/570/262 359/577/267 360/578/268
f 352/573/264 351/563/259 357/579/269 358/580/270
f 369/581/197 356/567/261 362/576/266
f 355/566/260 354/571/263 360/578/268 361/575/265
f 353/570/262 352/573/264 358/580/270 359/577/267
f 351/563/259 300/582/209 357/579/269
f 360/578/268 359/577/267 365/583/271 366/584/272
f 358/580/270 357/579/269 363/585/273 364/586/274
f 369/587/197 362/576/266 368/588/275
f 361/575/265 360/578/268 366/584/272 367/589/276
f 359/577/267 358/580/270 364/586/274 365/583/271
f 357/579/269 300/590/209 363/585/273
f 362/576/266 361/575/265 367/589/276 368/588/275
f 369/591/197 368/588/275 372/484/198
f 367/589/276 366/584/272 299/487/201 371/486/200
f 365/583/271 364/586/274 297/491/205 298/490/204
f 363/585/273 300/592/209 370/494/208
f 368/588/275 367/589/276 371/486/200 372/484/198
f 366/584/272 365/583/271 298/490/204 299/487/201
f 364/586/274 363/585/273 370/494/208 297/491/205
f 374/532/238 373/531/237 375/543/246 376/541/244
o Sphere.002_Sphere.004
v 0.000000 0.224610 -2.085556
v 0.000000 0.080162 -2.595073
v 0.000000 -0.080162 -2.595073
v -0.000000 0.360246 -0.022563
v 0.190420 0.324570 -1.036299
v 0.343126 0.224610 -1.849253
v 0.427871 0.080162 -2.300408
v 0.427871 -0.080162 -2.300408
v 0.343126 -0.224610 -1.849253
v 0.190420 -0.324570 -1.036299
v 0.337218 0.324570 -0.672926
v 0.607645 0.224610 -1.194477
v 0.757721 0.080162 -1.483915
v 0.757721 -0.080162 -1.483915
v 0.607645 -0.224610 -1.194477
v 0.337218 -0.324570 -0.672926
v 0.406762 0.324570 -0.160563
v 0.732961 0.224610 -0.271229
v 0.913987 0.080162 -0.332645
v 0.913987 -0.080162 -0.332645
v 0.732961 -0.224610 -0.271229
v 0.406763 -0.324570 -0.160563
v 0.383123 0.324570 0.203989
v 0.690364 0.224610 0.395688
v 0.860869 0.080162 0.502074
v 0.860869 -0.080162 0.502074
v 0.690364 -0.224610 0.395688
v 0.383123 -0.324570 0.203989
v 0.271715 0.324570 0.469528
v 0.489613 0.224610 0.874172
v 0.610537 0.080162 1.098733
v 0.610537 -0.080162 1.098733
v 0.489613 -0.224610 0.874172
v 0.271715 -0.324570 0.469528
v 0.098060 0.324570 0.619472
v 0.176697 0.224610 1.144363
v 0.176697 -0.224610 1.144363
v 0.098060 -0.324570 0.619472
v -0.098060 0.324570 0.619472
v -0.176697 0.224610 1.144363
v -0.176697 -0.224610 1.144363
v -0.098060 -0.324570 0.619472
v -0.271714 0.324570 0.469528
v -0.489613 0.224610 0.874172
v -0.610537 0.080162 1.098733
v -0.610537 -0.080162 1.098733
v -0.489613 -0.224610 0.874172
v -0.271714 -0.324570 0.469528
v -0.383123 0.324570 0.203989
v -0.690364 0.224610 0.395689
v -0.860870 0.080162 0.502073
v -0.860870 -0.080162 0.502073
v -0.690364 -0.224610 0.395689
v -0.383123 -0.324570 0.203989
v -0.406762 0.324570 -0.160562
v -0.732961 0.224610 -0.271229
v -0.913987 0.080162 -0.332645
v -0.913987 -0.080162 -0.332645
v -0.732961 -0.224610 -0.271229
v -0.406762 -0.324570 -0.160562
v -0.337218 0.324570 -0.672926
v -0.607645 0.224610 -1.194477
v -0.757721 0.080162 -1.483916
v -0.757721 -0.080162 -1.483916
v -0.607645 -0.224610 -1.194477
v -0.337218 -0.324570 -0.672926
v -0.190420 0.324570 -1.036299
v -0.343126 0.224610 -1.849253
v -0.427870 0.080162 -2.300408
v -0.427870 -0.080162 -2.300408
v -0.343126 -0.224610 -1.849253
v -0.190420 -0.324570 -1.036299
v 0.000000 -0.360246 -0.022563
v -0.000000 0.324570 -1.167438
v -0.000000 -0.224610 -2.085556
v -0.000000 -0.324570 -1.167438
v 0.220338 0.080162 1.435655
v 0.220338 -0.080162 1.435655
v -0.220338 0.080162 1.435655
v -0.220338 -0.080162 1.435655
vt 0.653846 0.000000
vt 0.692308 0.142857
vt 0.615385 0.142857
vt 0.692308 0.285714
vt 0.692308 0.428571
vt 0.615385 0.428571
vt 0.615385 0.285714
vt 0.692308 0.571429
vt 0.692308 0.714286
vt 0.615385 0.714286
vt 0.615385 0.571429
vt 0.692308 0.857143
vt 0.653846 1.000000
vt 0.615385 0.857143
vt 0.576923 0.000000
vt 0.538462 0.142857
vt 0.538462 0.428571
vt 0.538462 0.285714
vt 0.538462 0.714286
vt 0.538462 0.571429
vt 0.576923 1.000000
vt 0.538462 0.857143
vt 0.500000 0.000000
vt 0.461539 0.142857
vt 0.461539 0.428571
vt 0.461539 0.285714
vt 0.461539 0.714286
vt 0.461539 0.571429
vt 0.500000 1.000000
vt 0.461539 0.857143
vt 0.384615 0.714286
vt 0.384615 0.571429
vt 0.423077 1.000000
vt 0.384615 0.857143
vt 0.384615 0.285714
vt 0.384616 0.142857
vt 0.384615 0.428571
vt 0.423077 0.000000
vt 0.307692 0.285714
vt 0.307692 0.142857
vt 0.307692 0.571429
vt 0.307692 0.428571
vt 0.307692 0.857143
vt 0.307692 0.714286
vt 0.346154 0.000000
vt 0.346154 1.000000
vt 0.230769 0.285714
vt 0.230769 0.142857
vt 0.230769 0.571429
vt 0.230769 0.428571
vt 0.230769 0.857143
vt 0.230769 0.714286
vt 0.269231 0.000000
vt 0.269231 1.000000
vt 0.153846 0.857143
vt 0.153846 0.714286
vt 0.192308 0.000000
vt 0.153846 0.142857
vt 0.153846 0.428571
vt 0.153846 0.285714
vt 0.153846 0.571429
vt 0.192308 1.000000
vt 0.115385 0.000000
vt 0.076923 0.142857
vt 0.076923 0.428571
vt 0.076923 0.285714
vt 0.076923 0.714286
vt 0.076923 0.571429
vt 0.115385 1.000000
vt 0.076923 0.857143
vt 0.000000 0.428571
vt 0.000000 0.285714
vt 0.000000 0.714286
vt 0.000000 0.571429
vt 0.038462 1.000000
vt 0.000000 0.857143
vt 0.000000 0.142857
vt 0.038462 0.000000
vt 1.000000 0.857143
vt 0.961538 1.000000
vt 0.923077 0.857143
vt 1.000000 0.142857
vt 1.000000 0.285714
vt 0.923077 0.285714
vt 0.923077 0.142857
vt 1.000000 0.428571
vt 1.000000 0.571429
vt 0.923077 0.571429
vt 0.923077 0.428571
vt 1.000000 0.714286
vt 0.923077 0.714286
vt 0.961538 0.000000
vt 0.846154 0.285714
vt 0.846154 0.142857
vt 0.846154 0.571429
vt 0.846154 0.428571
vt 0.846154 0.857143
vt 0.846154 0.714286
vt 0.884615 0.000000
vt 0.884615 1.000000
vt 0.769231 0.571429
vt 0.769231 0.428571
vt 0.769231 0.857143
vt 0.769231 0.714286
vt 0.807692 0.000000
vt 0.769231 0.142857
vt 0.769231 0.285714
vt 0.807692 1.000000
vt 0.730769 0.000000
vt 0.730769 1.000000
vn 0.0000 -0.9999 0.0082
vn 0.0000 -0.9964 -0.0844
vn 0.1090 -0.9919 -0.0656
vn 0.0000 -0.9751 -0.2217
vn 0.0000 -0.5159 -0.8566
vn 0.6524 -0.5229 -0.5486
vn 0.2695 -0.9476 -0.1712
vn 0.0000 0.5159 -0.8566
vn 0.0000 0.9751 -0.2217
vn 0.2695 0.9476 -0.1712
vn 0.6524 0.5229 -0.5486
vn 0.0000 0.9964 -0.0844
vn 0.0000 0.9999 0.0082
vn 0.1090 0.9919 -0.0656
vn 0.1712 -0.9845 -0.0367
vn 0.8489 -0.4700 -0.2416
vn 0.4140 -0.9052 -0.0955
vn 0.4140 0.9052 -0.0955
vn 0.8489 0.4700 -0.2416
vn 0.1712 0.9845 -0.0367
vn 0.1961 -0.9806 -0.0046
vn 0.9036 -0.4267 -0.0368
vn 0.4721 -0.8814 -0.0138
vn 0.4721 0.8814 -0.0138
vn 0.9036 0.4267 -0.0368
vn 0.1961 0.9806 -0.0046
vn 0.4556 0.8845 0.0997
vn 0.8778 0.4285 0.2141
vn 0.1905 0.9809 0.0395
vn 0.4556 -0.8845 0.0997
vn 0.1905 -0.9809 0.0395
vn 0.8778 -0.4285 0.2141
vn 0.3443 -0.9102 0.2300
vn 0.1426 -0.9855 0.0916
vn 0.7105 0.4600 0.5325
vn 0.7105 -0.4600 0.5325
vn 0.1426 0.9855 0.0916
vn 0.3443 0.9102 0.2300
vn 0.1350 -0.9363 0.3242
vn 0.0551 -0.9902 0.1279
vn 0.2987 0.4799 0.8249
vn 0.2987 -0.4799 0.8249
vn 0.0551 0.9902 0.1279
vn 0.1350 0.9363 0.3242
vn -0.0551 0.9902 0.1279
vn -0.1350 0.9363 0.3242
vn -0.0551 -0.9902 0.1279
vn -0.2987 -0.4799 0.8249
vn -0.1350 -0.9363 0.3242
vn -0.2987 0.4799 0.8249
vn -0.1426 -0.9855 0.0916
vn -0.7105 -0.4600 0.5325
vn -0.3443 -0.9102 0.2300
vn -0.3443 0.9102 0.2300
vn -0.7105 0.4600 0.5325
vn -0.1426 0.9855 0.0916
vn -0.8778 -0.4285 0.2141
vn -0.4556 -0.8845 0.0997
vn -0.4556 0.8845 0.0997
vn -0.8778 0.4285 0.2141
vn -0.1905 0.9809 0.0395
vn -0.1905 -0.9809 0.0395
vn -0.1961 0.9806 -0.0046
vn -0.4721 -0.8814 -0.0138
vn -0.1961 -0.9806 -0.0046
vn -0.9036 0.4267 -0.0368
vn -0.9036 -0.4267 -0.0368
vn -0.4721 0.8814 -0.0138
vn -0.4140 -0.9052 -0.0955
vn -0.1712 -0.9845 -0.0367
vn -0.8489 0.4700 -0.2416
vn -0.8489 -0.4700 -0.2416
vn -0.1712 0.9845 -0.0367
vn -0.4140 0.9052 -0.0955
vn -0.6524 0.5229 -0.5486
vn -0.6524 -0.5229 -0.5486
vn -0.1090 0.9919 -0.0656
vn -0.2695 0.9476 -0.1712
vn -0.1090 -0.9919 -0.0656
vn -0.2695 -0.9476 -0.1712
usemtl None
s 1
f 449/593/277 452/594/278 386/595/279
f 451/596/280 379/597/281 384/598/282 385/599/283
f 378/600/284 377/601/285 382/602/286 383/603/287
f 450/604/288 380/605/289 381/606/290
f 452/594/278 451/596/280 385/599/283 386/595/279
f 379/597/281 378/600/284 383/603/287 384/598/282
f 377/601/285 450/604/288 381/606/290 382/602/286
f 449/607/277 386/595/279 392/608/291
f 385/599/283 384/598/282 390/609/292 391/610/293
f 383/603/287 382/602/286 388/611/294 389/612/295
f 381/606/290 380/613/289 387/614/296
f 386/595/279 385/599/283 391/610/293 392/608/291
f 384/598/282 383/603/287 389/612/295 390/609/292
f 382/602/286 381/606/290 387/614/296 388/611/294
f 449/615/277 392/608/291 398/616/297
f 391/610/293 390/609/292 396/617/298 397/618/299
f 389/612/295 388/611/294 394/619/300 395/620/301
f 387/614/296 380/621/289 393/622/302
f 392/608/291 391/610/293 397/618/299 398/616/297
f 390/609/292 389/612/295 395/620/301 396/617/298
f 388/611/294 387/614/296 393/622/302 394/619/300
f 395/620/301 394/619/300 400/623/303 401/624/304
f 393/622/302 380/625/289 399/626/305
f 398/616/297 397/618/299 403/627/306 404/628/307
f 396/617/298 395/620/301 401/624/304 402/629/308
f 394/619/300 393/622/302 399/626/305 400/623/303
f 449/630/277 398/616/297 404/628/307
f 397/618/299 396/617/298 402/629/308 403/627/306
f 404/628/307 403/627/306 409/631/309 410/632/310
f 402/629/308 401/624/304 407/633/311 408/634/312
f 400/623/303 399/626/305 405/635/313 406/636/314
f 449/637/277 404/628/307 410/632/310
f 403/627/306 402/629/308 408/634/312 409/631/309
f 401/624/304 400/623/303 406/636/314 407/633/311
f 399/626/305 380/638/289 405/635/313
f 410/632/310 409/631/309 413/639/315 414/640/316
f 408/634/312 407/633/311 453/641/317 454/642/318
f 406/636/314 405/635/313 411/643/319 412/644/320
f 449/645/277 410/632/310 414/640/316
f 409/631/309 408/634/312 454/642/318 413/639/315
f 407/633/311 406/636/314 412/644/320 453/641/317
f 405/635/313 380/646/289 411/643/319
f 412/644/320 411/643/319 415/647/321 416/648/322
f 449/649/277 414/640/316 418/650/323
f 413/639/315 454/642/318 456/651/324 417/652/325
f 453/641/317 412/644/320 416/648/322 455/653/326
f 411/643/319 380/654/289 415/647/321
f 414/640/316 413/639/315 417/652/325 418/650/323
f 449/655/277 418/650/323 424/656/327
f 417/652/325 456/651/324 422/657/328 423/658/329
f 455/653/326 416/648/322 420/659/330 421/660/331
f 415/647/321 380/661/289 419/662/332
f 418/650/323 417/652/325 423/658/329 424/656/327
f 456/651/324 455/653/326 421/660/331 422/657/328
f 416/648/322 415/647/321 419/662/332 420/659/330
f 423/658/329 422/657/328 428/663/333 429/664/334
f 421/660/331 420/659/330 426/665/335 427/666/336
f 419/662/332 380/667/289 425/668/337
f 424/656/327 423/658/329 429/664/334 430/669/338
f 422/657/328 421/660/331 427/666/336 428/663/333
f 420/659/330 419/662/332 425/668/337 426/665/335
f 449/670/277 424/656/327 430/669/338
f 425/671/337 380/672/289 431/673/339
f 430/674/338 429/675/334 435/676/340 436/677/341
f 428/678/333 427/679/336 433/680/342 434/681/343
f 426/682/335 425/671/337 431/673/339 432/683/344
f 449/684/277 430/674/338 436/677/341
f 429/675/334 428/678/333 434/681/343 435/676/340
f 427/679/336 426/682/335 432/683/344 433/680/342
f 436/677/341 435/676/340 441/685/345 442/686/346
f 434/681/343 433/680/342 439/687/347 440/688/348
f 432/683/344 431/673/339 437/689/349 438/690/350
f 449/691/277 436/677/341 442/686/346
f 435/676/340 434/681/343 440/688/348 441/685/345
f 433/680/342 432/683/344 438/690/350 439/687/347
f 431/673/339 380/692/289 437/689/349
f 440/688/348 439/687/347 445/693/351 446/694/352
f 438/690/350 437/689/349 443/695/353 444/696/354
f 449/697/277 442/686/346 448/698/355
f 441/685/345 440/688/348 446/694/352 447/699/356
f 439/687/347 438/690/350 444/696/354 445/693/351
f 437/689/349 380/700/289 443/695/353
f 442/686/346 441/685/345 447/699/356 448/698/355
f 449/701/277 448/698/355 452/594/278
f 447/699/356 446/694/352 379/597/281 451/596/280
f 445/693/351 444/696/354 377/601/285 378/600/284
f 443/695/353 380/702/289 450/604/288
f 448/698/355 447/699/356 451/596/280 452/594/278
f 446/694/352 445/693/351 378/600/284 379/597/281
f 444/696/354 443/695/353 450/604/288 377/601/285
f 454/642/318 453/641/317 455/653/326 456/651/324
